<?xml version="1.0" standalone="no"?>
<!DOCTYPE svg PUBLIC "-//W3C//DTD SVG 20010904//EN"
 "http://www.w3.org/TR/2001/REC-SVG-20010904/DTD/svg10.dtd">
<svg version="1.0" xmlns="http://www.w3.org/2000/svg"
 width="512.000000pt" height="512.000000pt" viewBox="0 0 512.000000 512.000000"
 preserveAspectRatio="xMidYMid meet">
<metadata>
Created by potrace 1.14, written by Peter Selinger 2001-2017
</metadata>
<g transform="translate(0.000000,512.000000) scale(0.100000,-0.100000)"
fill="#000000" stroke="none">
<path d="M1079 5116 c-2 -2 -26 -7 -54 -11 -66 -8 -173 -34 -210 -50 -16 -7
-41 -16 -55 -20 -34 -10 -149 -68 -202 -102 -291 -187 -480 -475 -543 -831
-21 -119 -22 -2968 0 -3098 72 -445 386 -807 824 -950 168 -55 135 -54 1726
-54 1271 0 1482 2 1557 15 518 91 916 502 988 1020 8 56 10 518 8 1570 -4
1636 0 1529 -63 1705 -135 380 -450 674 -825 771 -148 38 -162 38 -1676 38
-809 0 -1473 -1 -1475 -3z"/>
</g>
</svg>
